<?xml version="1.0" encoding="UTF-8"?>
<!DOCTYPE svg PUBLIC "-//W3C//DTD SVG 1.1//EN" "http://www.w3.org/Graphics/SVG/1.1/DTD/svg11.dtd">
<svg xmlns="http://www.w3.org/2000/svg" version="1.1" width="1024px" height="1024px" style="shape-rendering:geometricPrecision; text-rendering:geometricPrecision; image-rendering:optimizeQuality; fill-rule:evenodd; clip-rule:evenodd" xmlns:xlink="http://www.w3.org/1999/xlink">
<g><path style="opacity:1" fill="#e1e2e1" d="M 244.5,297.5 C 324.209,294.452 382.376,328.119 419,398.5C 448.708,470.099 440.375,536.766 394,598.5C 343.623,653.952 282.123,671.785 209.5,652C 152.855,630.688 115.355,591.188 97,533.5C 79.2821,467.75 91.6154,408.417 134,355.5C 163.845,322.815 200.678,303.482 244.5,297.5 Z M 214.5,342.5 C 223.672,343.165 226.506,347.831 223,356.5C 182.875,374.298 156.541,404.298 144,446.5C 142.516,454.231 140.85,461.898 139,469.5C 129.632,473.734 124.798,470.734 124.5,460.5C 131.547,413.658 154.88,377.491 194.5,352C 201.136,348.513 207.803,345.346 214.5,342.5 Z M 228.5,382.5 C 237.658,381.491 241.492,385.491 240,394.5C 239.167,395.5 238.333,396.5 237.5,397.5C 203.911,411.306 184.744,436.306 180,472.5C 173.133,476.878 168.133,475.212 165,467.5C 168.513,435.307 183.68,410.14 210.5,392C 216.72,389.059 222.72,385.892 228.5,382.5 Z M 253.5,419.5 C 293.558,418.884 315.891,438.551 320.5,478.5C 318.544,509.604 302.544,529.104 272.5,537C 246.477,540.118 226.644,530.618 213,508.5C 199.936,480.383 204.103,455.216 225.5,433C 233.829,426.287 243.162,421.787 253.5,419.5 Z"/></g>
<g><path style="opacity:1" fill="#e1e2e1" d="M 568.5,364.5 C 595.835,364.333 623.169,364.5 650.5,365C 747.242,368.75 791.075,418.917 782,515.5C 770.919,577.242 734.086,611.409 671.5,618C 637.05,619.476 603.383,619.976 570.5,619.5C 568.386,618.966 566.552,617.966 565,616.5C 564.333,533.167 564.333,449.833 565,366.5C 566.302,365.915 567.469,365.249 568.5,364.5 Z M 633.5,415.5 C 706.479,413.644 736.646,448.644 724,520.5C 714.655,548.46 695.155,563.96 665.5,567C 650.531,568.309 635.531,568.809 620.5,568.5C 620.543,517.393 620.543,466.727 620.5,416.5C 625.032,416.818 629.366,416.485 633.5,415.5 Z"/></g>
<g><path style="opacity:1" fill="#e1e2e1" d="M 884.5,364.5 C 901.837,364.333 919.17,364.5 936.5,365C 938.303,365.637 939.636,366.803 940.5,368.5C 940.403,423.431 940.403,476.098 940.5,526.5C 941.009,544.588 938.509,562.255 933,579.5C 923.137,601.687 906.303,615.52 882.5,621C 850.331,628.007 823.164,619.507 801,595.5C 790.564,579.611 787.064,562.444 790.5,544C 805.833,543.333 821.167,543.333 836.5,544C 838.402,550.51 840.569,557.01 843,563.5C 851.889,573.672 862.055,575.172 873.5,568C 878.666,562.164 881.499,555.331 882,547.5C 881.842,486.286 882.676,425.286 884.5,364.5 Z"/></g>
<g><path style="opacity:1" fill="#e1e2e1" d="M 475.5,365.5 C 494.845,365.167 514.178,365.5 533.5,366.5C 534.65,381.455 534.817,396.455 534,411.5C 533.5,412 533,412.5 532.5,413C 513.79,413.82 495.123,413.653 476.5,412.5C 475.501,396.848 475.167,381.181 475.5,365.5 Z"/></g>
<g><path style="opacity:1" fill="#e1e2e1" d="M 477.5,435.5 C 495.17,435.333 512.836,435.5 530.5,436C 531,436.5 531.5,437 532,437.5C 532.831,497.737 532.664,557.904 531.5,618C 527.517,618.64 523.517,619.14 519.5,619.5C 507.512,619.216 495.678,619.216 484,619.5C 481.931,618.736 479.764,618.236 477.5,618C 476.874,617.25 476.374,616.416 476,615.5C 475.333,556.833 475.333,498.167 476,439.5C 476.41,438.099 476.91,436.766 477.5,435.5 Z"/></g>
<g><path style="opacity:1" fill="#e1e2e1" d="M 258.5,463.5 C 274.324,463.496 280.157,471.163 276,486.5C 267.687,496.665 259.02,496.999 250,487.5C 245.43,476.701 248.264,468.701 258.5,463.5 Z"/></g>
</svg>
